<svg xmlns="http://www.w3.org/2000/svg" width="32" height="32" viewBox="0 0 32 32"><g transform="translate(0 -1036.362)"><path fill="#c2e4f8" d="m 10.998506,1046.855 a 5.4935002,5.4935002 0 0 1 -5.4935006,5.4935 5.4935002,5.4935002 0 0 1 -5.49350027,-5.4935 5.4935002,5.4935002 0 0 1 5.49350027,-5.4935 5.4935002,5.4935002 0 0 1 5.4935006,5.4935 z"/><path fill="#249fe6" fill-rule="evenodd" style="line-height:normal;text-indent:0;text-align:start;text-decoration-line:none;text-decoration-style:solid;text-decoration-color:#000;text-transform:none;block-progression:tb;isolation:auto;mix-blend-mode:normal" d="M5.4863281 1043.0234a.50004988.50004988 0 0 0-.4921875.5078l0 3.3243a.50004988.50004988 0 0 0 .5.5l3.0117188 0a.50004988.50004988 0 1 0 0-1l-2.5117188 0 0-2.8243a.50004988.50004988 0 0 0-.5078125-.5078zM9.5039062 1036.375a.50004988.50004988 0 0 0-.4921874.5078l0 1.9961a.50004988.50004988 0 1 0 1.0000002 0l0-1.9961a.50004988.50004988 0 0 0-.5078128-.5078zM13.496094 1036.375a.50004988.50004988 0 0 0-.492188.5078l0 1.9961a.50004988.50004988 0 1 0 1 0l0-1.9961a.50004988.50004988 0 0 0-.507812-.5078z" color="#000" font-family="sans-serif" font-weight="400" overflow="visible" white-space="normal"/><path fill="#249fe6" d="M9.0119324 1040.3699l.9982936 0 0 .9983-.9982936 0zM11.008514 1040.3699l.998294 0 0 .9983-.998294 0zM13.005096 1040.3699l.998294 0 0 .9983-.998294 0zM11.008514 1042.3665l.998294 0 0 .9982-.998294 0zM13.005096 1042.3665l.998294 0 0 .9982-.998294 0z"/><path fill="#249fe6" d="m 7.5145,1038.3734 c -0.27566,0 -0.49911,0.2235 -0.49914,0.4991 l 0,1.7976 c 0.4183,-0.011 0.99829,0.3841 0.99829,0.3841 l 0,-1.6825 6.98806,0 0,4.9915 -3.69122,0 c 0.28124,0.2868 0.29117,0.6561 0.37241,0.9982 l 3.81796,0 c 0.27566,0 0.49912,-0.2234 0.49914,-0.4991 l 0,-5.9898 c -2e-5,-0.2756 -0.22348,-0.4991 -0.49914,-0.4991 z" color="#000" font-family="sans-serif" font-weight="400" overflow="visible" white-space="normal" style="line-height:normal;text-indent:0;text-align:start;text-decoration-line:none;text-decoration-style:solid;text-decoration-color:#000;text-transform:none;block-progression:tb;isolation:auto;mix-blend-mode:normal"/><path fill="#249fe6" d="m 5.49257,1041.3616 c -3.02841,0 -5.49251,2.466 -5.49257,5.4945 0,3.0284 2.46411,5.4925 5.49257,5.4925 3.02845,0 5.49452,-2.4641 5.49452,-5.4925 -6e-5,-3.0285 -2.46611,-5.4945 -5.49452,-5.4945 z m 0,0.9982 c 2.4889,0 4.49618,2.0073 4.49622,4.4963 10e-6,2.4889 -2.00728,4.4942 -4.49622,4.4942 -2.48894,0 -4.49428,-2.0053 -4.49427,-4.4942 4e-5,-2.489 2.00537,-4.4963 4.49427,-4.4963 z" color="#000" font-family="sans-serif" font-weight="400" overflow="visible" white-space="normal" style="line-height:normal;text-indent:0;text-align:start;text-decoration-line:none;text-decoration-style:solid;text-decoration-color:#000;text-transform:none;block-progression:tb;isolation:auto;mix-blend-mode:normal"/></g></svg>